<svg xmlns="http://www.w3.org/2000/svg" width="128px" height="46px" viewBox="0 0 128 46">
  <g stroke="none" strokeWidth="1" fill="none" fillRule="evenodd">
    <path
      d="M101.6307,37.4342 C101.6307,37.4342 100.8687,35.6992 100.2287,34.6762 C98.6927,32.2252 95.0347,29.3822 95.0347,29.3822 C95.0347,29.3822 93.6667,28.4822 92.6487,29.4542 C91.6127,30.4422 92.7207,32.2142 92.7207,32.2142 C92.7207,32.2142 96.8567,33.5252 98.9747,42.8482 C99.3027,44.2952 100.2217,45.7532 101.3367,45.8302 C103.4297,45.9762 103.9457,43.8822 103.9457,43.8822 C103.9457,43.8822 104.5857,41.6492 105.0547,40.2402 C105.6407,38.4822 106.0527,37.5192 106.7037,35.7832 C107.5827,33.4362 108.0997,32.1212 108.9907,29.7782 C109.9527,27.2532 111.4547,23.3032 111.4547,23.3032 C111.4547,23.3032 116.6277,10.0782 124.2267,3.1532 L127.3557,0.1612 C127.3557,0.1612 125.5617,-1.7828 117.4867,7.8432 C117.4867,7.8432 112.5887,13.2582 107.2207,24.7792 C107.2207,24.7792 102.6637,34.8512 101.8517,36.8432 L101.6307,37.4342 L101.6307,37.4342 Z"
      fill="#004677"
    />
    <path
      d="M34.0747,23.0392 L31.6937,23.0392 C31.6937,23.0392 27.6787,17.3382 27.6617,17.3232 C27.2547,16.7492 26.5887,15.6582 26.5887,15.6582 C26.5887,15.6582 26.6917,16.9892 26.6917,17.9452 L26.6917,23.0392 L24.4337,23.0392 L24.4337,12.4582 L26.8007,12.4582 L30.8007,18.2322 C31.2097,18.8242 31.5427,19.2482 31.8467,19.7502 C31.7857,18.7772 31.8017,18.4762 31.8017,17.6572 L31.8017,12.4582 L34.0747,12.4582 L34.0747,23.0392 Z"
      fill="#004677"
    />
    <path
      d="M39.3816,18.0953 C39.0316,18.0203 38.7586,18.0053 38.5166,18.0053 C37.4386,18.0053 36.7266,18.7633 36.7266,20.0383 C36.7266,20.8853 37.1676,21.3373 37.8336,21.3373 C38.6666,21.3373 39.3816,20.5833 39.3816,19.4603 L39.3816,18.0953 Z M37.3496,23.1903 C35.6976,23.1903 34.6666,22.0383 34.6666,20.0383 C34.6666,17.6113 36.2726,16.2173 38.9556,16.2173 C39.8336,16.2173 40.3796,16.2793 41.3056,16.5513 L41.3056,20.8573 C41.3056,21.7943 41.4256,23.0393 41.4256,23.0393 L39.6836,23.0393 C39.6836,23.0393 39.6536,22.6303 39.6226,22.1423 C39.1226,22.8273 38.2436,23.1903 37.3496,23.1903 L37.3496,23.1903 Z"
      fill="#004677"
    />
    <path
      d="M44.6849,20.4909 C44.6849,21.4169 45.0029,21.7039 45.5949,21.7039 C45.9419,21.7039 46.3219,21.5539 46.8209,21.2659 L46.8209,22.7669 C46.3529,23.0689 45.7759,23.2519 45.0489,23.2519 C43.6539,23.2519 42.6669,22.7059 42.6669,21.0359 L42.6669,17.8079 L41.5789,17.8079 L41.5789,16.3689 L42.6669,16.3689 L42.6669,14.6889 L44.6849,14.6889 L44.6849,16.3689 L46.6849,16.3689 L46.6849,17.8079 L44.6849,17.8079 L44.6849,20.4909 Z"
      fill="#004677"
    />
    <mask id="mask" fill="white">
      <polygon points="0 45.8377 127.356 45.8377 127.356 -0.0003 0 -0.0003" />
    </mask>
    <path
      d="M47.913,23.0387 L49.978,23.0387 L49.978,16.3687 L47.913,16.3687 L47.913,23.0387 Z M48.959,15.4887 C48.294,15.4887 47.746,14.9757 47.746,14.3367 C47.746,13.7007 48.263,13.1697 48.959,13.1697 C49.583,13.1697 50.143,13.7147 50.143,14.3677 C50.143,14.9897 49.611,15.4887 48.959,15.4887 L48.959,15.4887 Z"
      fill="#004677"
      mask="url(#mask)"
    />
    <path
      d="M54.2036,17.9627 C53.2946,17.9627 52.7956,18.6117 52.7956,19.6897 C52.7956,20.8097 53.2816,21.4627 54.2036,21.4627 C55.1266,21.4627 55.6586,20.8247 55.6586,19.6897 C55.6586,18.5977 55.0826,17.9627 54.2036,17.9627 M54.2036,23.2517 C52.1136,23.2517 50.6876,21.9767 50.6876,19.6897 C50.6876,17.4597 52.0666,16.1707 54.2036,16.1707 C56.3106,16.1707 57.7056,17.4177 57.7056,19.6897 C57.7056,21.9767 56.2956,23.2517 54.2036,23.2517"
      fill="#004677"
      mask="url(#mask)"
    />
    <path
      d="M60.1616,23.0392 L58.1446,23.0392 L58.1446,18.5052 C58.1446,17.7322 58.0076,16.8392 57.8126,16.3692 L59.8256,16.3692 C59.9486,16.6552 59.9786,16.7632 60.0386,17.1112 C60.6746,16.4902 61.4796,16.1892 62.2536,16.1892 C63.5426,16.1892 64.5406,17.1732 64.5406,18.7492 L64.5406,23.0392 L62.4346,23.0392 L62.4346,19.1112 C62.4346,18.0352 61.8276,17.9732 61.5426,17.9732 C61.2816,17.9732 60.1616,18.1882 60.1616,20.1742 L60.1616,23.0392 Z"
      fill="#004677"
      mask="url(#mask)"
    />
    <path
      d="M69.9969,18.0953 C69.6489,18.0203 69.3769,18.0053 69.1339,18.0053 C68.0589,18.0053 67.3459,18.7633 67.3459,20.0383 C67.3459,20.8853 67.7859,21.3373 68.4529,21.3373 C69.2869,21.3373 69.9969,20.5833 69.9969,19.4603 L69.9969,18.0953 Z M67.9649,23.1903 C66.3139,23.1903 65.2829,22.0383 65.2829,20.0383 C65.2829,17.6113 66.8919,16.2173 69.5729,16.2173 C70.4539,16.2173 70.9979,16.2793 71.9219,16.5513 L71.9219,20.8573 C71.9219,21.7943 72.0449,23.0393 72.0449,23.0393 L70.3019,23.0393 C70.3019,23.0393 70.2709,22.6303 70.2389,22.1423 C69.7389,22.8273 68.8609,23.1903 67.9649,23.1903 L67.9649,23.1903 Z"
      fill="#004677"
      mask="url(#mask)"
    />
    <polygon
      fill="#004677"
      mask="url(#mask)"
      points="72.741 23.0387 74.816 23.0387 74.816 12.4577 72.741 12.4577"
    />
    <path
      d="M83.8358,16.8241 C83.8358,16.8241 84.5318,16.8851 84.6868,16.8851 C85.9728,16.8851 86.7768,16.3691 86.7768,15.5491 C86.7768,14.6551 86.1108,14.1571 84.6098,14.1571 C84.4258,14.1571 84.1548,14.1721 83.8358,14.2001 L83.8358,16.8241 Z M90.0208,23.0391 L87.1248,23.0391 L83.8358,18.7951 L83.8358,23.0391 L81.3978,23.0391 L81.3978,12.5331 C82.2588,12.4731 84.1978,12.4261 84.6258,12.4261 C87.9148,12.4261 89.3078,13.4891 89.3078,15.4891 C89.3078,17.1111 88.0488,18.1561 86.0338,18.2031 L90.0208,23.0391 Z"
      fill="#004677"
      mask="url(#mask)"
    />
    <path
      d="M94.4007,18.0953 C94.0507,18.0203 93.7787,18.0053 93.5367,18.0053 C92.4617,18.0053 91.7487,18.7633 91.7487,20.0383 C91.7487,20.8853 92.1867,21.3373 92.8547,21.3373 C93.6877,21.3373 94.4007,20.5833 94.4007,19.4603 L94.4007,18.0953 Z M92.3707,23.1903 C90.7167,23.1903 89.6877,22.0383 89.6877,20.0383 C89.6877,17.6113 91.2937,16.2173 93.9747,16.2173 C94.8537,16.2173 95.4007,16.2793 96.3277,16.5513 L96.3277,20.8573 C96.3277,21.7943 96.4467,23.0393 96.4467,23.0393 L94.7037,23.0393 C94.7037,23.0393 94.6727,22.6303 94.6427,22.1423 C94.1437,22.8273 93.2637,23.1903 92.3707,23.1903 L92.3707,23.1903 Z"
      fill="#004677"
      mask="url(#mask)"
    />
    <path
      d="M97.463,23.0387 L99.524,23.0387 L99.524,16.3687 L97.463,16.3687 L97.463,23.0387 Z M98.507,15.4887 C97.842,15.4887 97.296,14.9757 97.296,14.3367 C97.296,13.7007 97.81,13.1697 98.507,13.1697 C99.127,13.1697 99.691,13.7147 99.691,14.3677 C99.691,14.9897 99.159,15.4887 98.507,15.4887 L98.507,15.4887 Z"
      fill="#004677"
      mask="url(#mask)"
    />
    <polygon
      fill="#004677"
      mask="url(#mask)"
      points="100.919 23.0387 102.994 23.0387 102.994 12.4577 100.919 12.4577"
    />
    <path
      d="M0,18.0993 C0,12.8673 4.243,8.6243 9.475,8.6243 C14.711,8.6243 18.955,12.8673 18.955,18.0993 C18.955,23.3343 14.711,27.5783 9.475,27.5783 C4.243,27.5783 0,23.3343 0,18.0993 L0,18.0993 Z M4.891,13.4853 L9.691,15.6933 L2.237,15.6933 L2.237,17.1803 L9.741,17.1803 L6.093,18.9533 L2.237,18.9533 L2.237,20.4303 L6.093,20.4303 L10.657,22.6383 L14.083,22.6383 L9.27,20.4303 L16.748,20.4303 L16.748,18.9533 L9.282,18.9533 L12.928,17.1803 L16.748,17.1803 L16.748,15.6933 L12.905,15.6933 L8.341,13.4853 L4.891,13.4853 Z"
      fill="#004677"
      mask="url(#mask)"
    />
    <path
      d="M39.5666,30.5367 C39.2446,30.4427 38.9846,30.4297 38.7246,30.4297 C37.6956,30.4297 37.0266,31.2317 37.0266,32.6087 C37.0266,33.5567 37.4346,34.0777 38.0916,34.0777 C38.8976,34.0777 39.5666,33.2497 39.5666,31.9937 L39.5666,30.5367 Z M37.8436,35.3347 C36.5926,35.3347 35.7236,34.3457 35.7236,32.5407 C35.7236,30.4567 36.9766,29.1737 38.9596,29.1737 C39.6286,29.1737 40.0756,29.2407 40.7816,29.4807 L40.7816,33.5167 C40.7816,34.3057 40.8686,35.2007 40.8686,35.2007 L39.7526,35.2007 C39.7526,35.2007 39.6906,34.5597 39.6786,34.3457 C39.2696,35.0007 38.5386,35.3347 37.8436,35.3347 L37.8436,35.3347 Z"
      fill="#004677"
      mask="url(#mask)"
    />
    <path
      d="M46.5582,34.8806 C45.9882,35.2006 45.4922,35.3476 44.9222,35.3476 C43.3722,35.3476 42.3432,34.1986 42.3432,32.4086 C42.3432,30.4706 43.3352,29.1736 45.1072,29.1736 C45.7522,29.1736 46.0992,29.3206 46.5462,29.5476 L46.3222,30.7636 C45.8392,30.5106 45.6772,30.4296 45.2072,30.4296 C44.2652,30.4296 43.6952,31.1786 43.6952,32.3676 C43.6952,33.4506 44.2152,34.1456 45.0962,34.1456 C45.5542,34.1456 45.9512,34.0116 46.4722,33.6646 L46.5582,34.8806 Z"
      fill="#004677"
      mask="url(#mask)"
    />
    <path
      d="M51.8384,34.8806 C51.2694,35.2006 50.7714,35.3476 50.2014,35.3476 C48.6534,35.3476 47.6234,34.1986 47.6234,32.4086 C47.6234,30.4706 48.6154,29.1736 50.3874,29.1736 C51.0324,29.1736 51.3804,29.3206 51.8264,29.5476 L51.6024,30.7636 C51.1184,30.5106 50.9584,30.4296 50.4874,30.4296 C49.5454,30.4296 48.9754,31.1786 48.9754,32.3676 C48.9754,33.4506 49.4964,34.1456 50.3764,34.1456 C50.8344,34.1456 51.2314,34.0116 51.7524,33.6646 L51.8384,34.8806 Z"
      fill="#004677"
      mask="url(#mask)"
    />
    <path
      d="M54.417,35.201 L53.202,35.201 L53.202,31.258 C53.202,30.39 53.166,30.016 52.992,29.321 L54.17,29.321 C54.28,29.749 54.305,29.896 54.318,30.457 C54.752,29.561 55.186,29.187 55.855,29.187 C56.103,29.187 56.215,29.241 56.474,29.361 L56.474,30.51 C56.24,30.457 56.115,30.443 55.954,30.443 C55,30.443 54.417,31.353 54.417,32.889 L54.417,35.201 Z"
      fill="#004677"
      mask="url(#mask)"
    />
    <path
      d="M59.7603,30.2701 C59.1153,30.2701 58.5333,31.0051 58.4343,31.8871 C58.6463,31.9261 58.7433,31.9401 58.9183,31.9401 C59.8603,31.9401 60.4553,31.5531 60.4553,30.9511 C60.4553,30.5771 60.1573,30.2701 59.7603,30.2701 L59.7603,30.2701 Z M61.3103,34.8541 C60.7523,35.2281 60.2443,35.3751 59.6003,35.3751 C58.0633,35.3751 57.1083,34.2661 57.1083,32.5021 C57.1083,30.5371 58.2233,29.1731 59.8233,29.1731 C60.9883,29.1731 61.7193,29.8421 61.7193,30.8981 C61.7193,32.1271 60.6283,32.8891 58.8803,32.8891 C58.7323,32.8891 58.6323,32.8891 58.4093,32.8751 C58.4963,33.7571 58.9673,34.2791 59.6993,34.2791 C60.2083,34.2791 60.7523,34.0781 61.3103,33.6911 L61.3103,34.8541 Z"
      fill="#004677"
      mask="url(#mask)"
    />
    <path
      d="M66.839,30.5769 C66.504,30.4299 66.132,30.3769 65.797,30.3769 C64.855,30.3769 64.21,31.2449 64.21,32.5409 C64.21,33.4909 64.644,34.0929 65.29,34.0929 C66.132,34.0929 66.839,33.4769 66.839,31.6729 L66.839,30.5769 Z M65.141,35.3479 C63.79,35.3479 62.86,34.2259 62.86,32.5289 C62.86,30.5769 64,29.1739 65.562,29.1739 C65.971,29.1739 66.355,29.2139 66.839,29.3869 L66.839,25.8729 L68.067,25.8729 L68.067,33.1689 C68.067,34.2259 68.165,35.2009 68.165,35.2009 L67.074,35.2009 C67.074,35.2009 67.013,34.6269 67,34.4129 C66.578,35.0539 65.86,35.3479 65.141,35.3479 L65.141,35.3479 Z"
      fill="#004677"
      mask="url(#mask)"
    />
    <path
      d="M69.938,35.2007 L71.252,35.2007 L71.252,29.3207 L69.938,29.3207 L69.938,35.2007 Z M70.607,28.3317 C70.185,28.3317 69.826,27.9837 69.826,27.5437 C69.826,27.0757 70.148,26.7147 70.583,26.7147 C70.992,26.7147 71.363,27.0887 71.363,27.5567 C71.363,27.9837 71.017,28.3317 70.607,28.3317 L70.607,28.3317 Z"
      fill="#004677"
      mask="url(#mask)"
    />
    <path
      d="M76.2351,34.9604 C75.9131,35.2014 75.4911,35.3754 74.9951,35.3754 C73.9291,35.3754 73.2841,34.8134 73.2841,33.4364 L73.2841,30.3494 L72.4671,30.3494 L72.4671,29.3214 L73.2841,29.3214 L73.2841,27.9434 L74.5121,27.9434 L74.5121,29.3214 L76.1241,29.3214 L76.1241,30.3494 L74.5121,30.3494 L74.5121,33.1964 C74.5121,33.9714 74.7841,34.2784 75.2691,34.2784 C75.5281,34.2784 75.8881,34.1184 76.2351,33.8784 L76.2351,34.9604 Z"
      fill="#004677"
      mask="url(#mask)"
    />
    <path
      d="M79.8294,30.2701 C79.1854,30.2701 78.6024,31.0051 78.5034,31.8871 C78.7154,31.9261 78.8134,31.9401 78.9874,31.9401 C79.9284,31.9401 80.5244,31.5531 80.5244,30.9511 C80.5244,30.5771 80.2274,30.2701 79.8294,30.2701 L79.8294,30.2701 Z M81.3804,34.8541 C80.8214,35.2281 80.3134,35.3751 79.6684,35.3751 C78.1314,35.3751 77.1774,34.2661 77.1774,32.5021 C77.1774,30.5371 78.2924,29.1731 79.8914,29.1731 C81.0564,29.1731 81.7884,29.8421 81.7884,30.8981 C81.7884,32.1271 80.6974,32.8891 78.9494,32.8891 C78.8014,32.8891 78.7014,32.8891 78.4794,32.8751 C78.5664,33.7571 79.0374,34.2791 79.7684,34.2791 C80.2764,34.2791 80.8214,34.0781 81.3804,33.6911 L81.3804,34.8541 Z"
      fill="#004677"
      mask="url(#mask)"
    />
    <path
      d="M86.9084,30.5769 C86.5734,30.4299 86.2014,30.3769 85.8664,30.3769 C84.9244,30.3769 84.2794,31.2449 84.2794,32.5409 C84.2794,33.4909 84.7134,34.0929 85.3584,34.0929 C86.2014,34.0929 86.9084,33.4769 86.9084,31.6729 L86.9084,30.5769 Z M85.2104,35.3479 C83.8594,35.3479 82.9294,34.2259 82.9294,32.5289 C82.9294,30.5769 84.0694,29.1739 85.6304,29.1739 C86.0404,29.1739 86.4254,29.2139 86.9084,29.3869 L86.9084,25.8729 L88.1354,25.8729 L88.1354,33.1689 C88.1354,34.2259 88.2344,35.2009 88.2344,35.2009 L87.1444,35.2009 C87.1444,35.2009 87.0814,34.6269 87.0694,34.4129 C86.6474,35.0539 85.9284,35.3479 85.2104,35.3479 L85.2104,35.3479 Z"
      fill="#004677"
      mask="url(#mask)"
    />
  </g>
</svg>
